<svg xmlns="http://www.w3.org/2000/svg" width="2000" zoomAndPan="magnify" viewBox="0 0 1500 375" height="500" preserveAspectRatio="xMidYMid" xmlns:v="https://vecta.io/nano"><path d="M793.578 61.716c-1.156 4.605-2.258 9.844-3.297 15.719l-2.937 17.953-2.578 17.969c-.805 5.867-1.32 11.102-1.547 15.703h8.968l28.657-49.392h52.828l-13.39 63.243h15.258v61.711h-28.324l-17.043 80.499c-6.449.918-12.375 2.012-17.782 3.281-5.406 1.262-10.875 2.931-16.406 5.001l-1.718 10.015h97.015l1.734-10.015c-4.375-2.07-9.038-3.68-13.983-4.828l-15.719-3.454 43.516-205.453h52.828l7.25 49.392h8.969c1.613-4.844 3.281-10.196 5-16.063l5.016-17.953 4.484-17.78c1.383-5.758 2.536-10.942 3.454-15.548zm-669.451 1.436L32.925 305.456h79.633l9.87-33.012h77.93l9.872 33.012h79.973L199.678 63.152zm286.548 0v82.355c-14.293-14.293-31.993-21.781-51.391-21.781-41.516 0-74.187 32.331-74.187 93.929 0 58.875 29.949 94.605 75.551 94.605 22.461 0 40.497-8.848 52.75-25.523l2.039 18.719h63.98V63.152zm92.563 0v150.757c0 65.004 38.796 99.375 113.328 99.375s113.325-34.371 113.325-99.375v-9.286h-32.313v-61.711h32.313V63.152h-76.23v150.757c0 25.527-12.254 38.796-37.094 38.796s-37.097-13.269-37.097-38.796V63.152zm658.791 45.489c-4.25 1.699-8.341 3.449-12.267 5.25-3.918 1.805-7.358 3.872-10.327 6.204l-5.095 24.171c-4.656 1.063-9.375 2.555-14.156 4.469-4.773 1.906-9.276 4.027-13.515 6.359l-.313 8.266h24.173l-20.985 99.875a154.06 154.06 0 0 0-2.077 11.142c-.531 3.605-.797 6.89-.797 9.858 0 8.906 2.648 15.481 7.953 19.72s12.618 6.359 21.954 6.359c4.664 0 9.593-.746 14.78-2.234 5.195-1.48 10.18-3.383 14.953-5.719 4.781-2.332 9.078-4.876 12.891-7.626 3.813-2.758 6.676-5.519 8.594-8.281l-3.5-5.719c-5.094 2.543-10.665 4.824-16.704 6.844-6.043 2.012-11.715 3.016-17.016 3.016-3.824 0-7.324-1.27-10.5-3.813s-4.765-6.57-4.765-12.094c0-2.539.206-5.347.624-8.421.426-3.07 1.063-6.625 1.907-10.657l20.046-92.25h39.438c1.695-2.539 2.758-5.191 3.188-7.953s.426-5.411 0-7.954h-39.438l7.625-34.983zM161.566 136.319l9.188 38.114 14.292 46.964h-46.964l14.292-46.964zm830.596 7.323c-2.969.211-6.257.687-9.858 1.437a189.7 189.7 0 0 0-11.297 2.703 246.34 246.34 0 0 0-11.766 3.485c-3.93 1.273-7.586 2.546-10.969 3.828v7.954l19.406 2.859-6.532 30.687-6.844 33.25-5.407 29.906c-1.48 9.117-2.218 16.008-2.218 20.672 0 9.543 2.539 16.914 7.625 22.109 5.094 5.188 11.351 7.781 18.781 7.781 8.906 0 17.016-2.328 24.328-6.984 7.313-4.664 13.833-10.391 19.563-17.172 5.727-6.789 10.66-14.003 14.796-21.64s7.579-14.422 10.329-20.36h1.282c-3.605 12.938-5.938 23.915-7 32.922s-1.594 15.429-1.594 19.25c0 2.969 1.32 5.727 3.968 8.266 2.656 2.539 7.056 3.813 13.204 3.813 5.727 0 11.613-1.06 17.656-3.173 6.051-2.125 11.196-4.882 15.438-8.281v-7.953h-23.547l26.093-141.548h-26.405l-14.001 71.578c-1.062 2.75-2.601 6.406-4.608 10.969s-4.509 9.497-7.485 14.798c-2.969 5.293-6.308 10.648-10.015 16.062-3.711 5.406-7.633 10.339-11.766 14.796-4.137 4.449-8.539 8.056-13.203 10.813-4.668 2.75-9.337 4.125-14.001 4.125-3.18 0-5.984-1.375-8.421-4.125-2.437-2.758-3.656-6.367-3.656-10.828 0-7.414.583-14.25 1.75-20.5l3.328-17.032c2.977-15.906 6.211-31.016 9.703-45.328 3.5-14.312 6.945-29.422 10.343-45.328zm291.06 0c-14.43 0-27.048 3.288-37.86 9.858s-19.828 14.949-27.047 25.125c-7.211 10.18-12.562 21.367-16.062 33.563-3.492 12.188-5.234 23.903-5.234 35.142 0 21 4.82 36.75 14.468 47.25 9.645 10.492 22.633 15.734 38.969 15.734 12.301 0 23.538-2.915 33.718-8.735 10.176-5.832 18.868-13.625 26.079-23.375 7.207-9.758 12.828-21.055 16.859-33.891s6.047-26.243 6.047-40.235c0-19.937-4.187-34.992-12.562-45.171s-20.835-15.265-37.374-15.265zm117.683 0c-6.356.637-13.461 1.855-21.312 3.656-7.844 1.805-15.372 4.401-22.579 7.796v7.954l19.406 2.859-29.593 140.593h27.359l19.094-88.749c5.301-14.633 11.395-26.242 18.281-34.828 6.895-8.594 13.098-13.946 18.609-16.063l25.125 13.047c1.488-1.488 2.921-3.665 4.296-6.532a100.49 100.49 0 0 0 3.828-9.062c1.164-3.176 2.067-6.301 2.704-9.375.633-3.082.952-5.579.952-7.485-2.555-1.488-5.211-2.491-7.969-3.015-2.75-.531-5.507-.797-8.265-.797-10.18 0-19.72 4.188-28.626 12.563s-16.433 19.563-22.578 33.563h-1.282l8.906-42.313zm-692.824 9.771v40.711h156.961v-40.711zm568.781 3.901c9.32.211 16.157 4.133 20.501 11.766 4.352 7.637 6.532 17.71 6.532 30.218 0 11.875-1.118 23.649-3.344 35.313s-5.414 22.117-9.546 31.343c-4.137 9.219-9.121 16.641-14.953 22.266-5.824 5.617-12.449 8.423-19.875 8.423-9.324 0-16.746-3.922-22.266-11.766-5.512-7.852-8.266-18.036-8.266-30.548 0-9.32.739-19.602 2.219-30.844 1.488-11.238 4.14-21.734 7.953-31.484 3.82-9.758 9.019-17.925 15.593-24.5 6.57-6.582 15.055-9.977 25.453-10.188zm-895.115 19.162c18.379 0 29.609 16.337 29.609 40.157 0 24.164-11.23 39.82-29.609 39.82-15.652 0-26.543-11.574-26.543-39.82s10.891-40.157 26.543-40.157z" fill="#fff"/></svg>